<svg xmlns="http://www.w3.org/2000/svg" width="24" height="24.001" viewBox="0 0 24 24.001">
  <g id="vuesax_outline_info-circle" data-name="vuesax/outline/info-circle" transform="translate(24 24) rotate(180)">
    <g id="info-circle">
      <path id="Subtraction_2" data-name="Subtraction 2" d="M-4218-3448a11.922,11.922,0,0,1-8.485-3.515A11.919,11.919,0,0,1-4230-3460a11.919,11.919,0,0,1,3.515-8.486A11.923,11.923,0,0,1-4218-3472a11.92,11.92,0,0,1,8.485,3.515A11.919,11.919,0,0,1-4206-3460a11.919,11.919,0,0,1-3.515,8.485A11.92,11.92,0,0,1-4218-3448Zm-5.455-12.545a.533.533,0,0,0-.545.545.534.534,0,0,0,.545.546h4.909v4.909a.534.534,0,0,0,.547.546.533.533,0,0,0,.544-.546v-4.909h4.909A.534.534,0,0,0-4212-3460a.533.533,0,0,0-.545-.545h-4.909v-4.91A.533.533,0,0,0-4218-3466a.534.534,0,0,0-.547.546v4.91Z" transform="translate(4230 3472)" fill="#297be6"/>
      <path id="Subtraction_1" data-name="Subtraction 1" d="M-4925-2702a11.92,11.92,0,0,1-8.485-3.515A11.919,11.919,0,0,1-4937-2714a11.919,11.919,0,0,1,3.515-8.485A11.92,11.92,0,0,1-4925-2726a11.92,11.92,0,0,1,8.485,3.515A11.919,11.919,0,0,1-4913-2714a11.919,11.919,0,0,1-3.515,8.485A11.92,11.92,0,0,1-4925-2702Zm-5.454-12.545a.533.533,0,0,0-.545.545.533.533,0,0,0,.545.545h4.909v4.909a.535.535,0,0,0,.546.547.534.534,0,0,0,.545-.547v-4.909h4.909A.533.533,0,0,0-4919-2714a.533.533,0,0,0-.545-.545h-4.909v-4.909A.534.534,0,0,0-4925-2720a.534.534,0,0,0-.546.546v4.909Z" transform="translate(4937 2726)" fill="#297be6"/>
    </g>
  </g>
</svg>
